<svg width="15" height="15" viewBox="0 0 15 15" fill="none" xmlns="http://www.w3.org/2000/svg">
<g clip-path="url(#clip0_25_81)">
<path d="M14.7954 12.969L11.8745 10.0481C11.7427 9.91626 11.564 9.84302 11.3765 9.84302H10.8989C11.7075 8.80884 12.188 7.50806 12.188 6.09302C12.188 2.72681 9.46045 -0.000732422 6.09424 -0.000732422C2.72803 -0.000732422 0.000488281 2.72681 0.000488281 6.09302C0.000488281 9.45923 2.72803 12.1868 6.09424 12.1868C7.50928 12.1868 8.81006 11.7063 9.84424 10.8977V11.3752C9.84424 11.5627 9.91748 11.7415 10.0493 11.8733L12.9702 14.7942C13.2456 15.0696 13.6909 15.0696 13.9634 14.7942L14.7925 13.9651C15.0679 13.6897 15.0679 13.2444 14.7954 12.969ZM6.09424 9.84302C4.02295 9.84302 2.34424 8.16724 2.34424 6.09302C2.34424 4.02173 4.02002 2.34302 6.09424 2.34302C8.16553 2.34302 9.84424 4.0188 9.84424 6.09302C9.84424 8.16431 8.16846 9.84302 6.09424 9.84302Z" fill="#9E9EA7"/>
</g>
<defs>
<clipPath id="clip0_25_81">
<rect width="14.9989" height="15.0015" fill="white" transform="translate(0.000488281 -0.000732422)"/>
</clipPath>
</defs>
</svg>
